<?xml version="1.0" encoding="UTF-8" standalone="no"?>
<!-- Created with Inkscape (http://www.inkscape.org/) -->

<svg
   xmlns:dc="http://purl.org/dc/elements/1.1/"
   xmlns:cc="http://creativecommons.org/ns#"
   xmlns:rdf="http://www.w3.org/1999/02/22-rdf-syntax-ns#"
   xmlns:svg="http://www.w3.org/2000/svg"
   xmlns="http://www.w3.org/2000/svg"
   xmlns:sodipodi="http://sodipodi.sourceforge.net/DTD/sodipodi-0.dtd"
   xmlns:inkscape="http://www.inkscape.org/namespaces/inkscape"
   width="172.35201"
   height="199.32961"
   id="svg2"
   version="1.1"
   inkscape:version="0.48.2 r9819"
   sodipodi:docname="treble.svg">
  <defs
     id="defs4" />
  <sodipodi:namedview
     id="base"
     pagecolor="#ffffff"
     bordercolor="#666666"
     borderopacity="1.0"
     inkscape:pageopacity="0.0"
     inkscape:pageshadow="2"
     inkscape:zoom="0.49497475"
     inkscape:cx="-202.90841"
     inkscape:cy="-316.72884"
     inkscape:document-units="px"
     inkscape:current-layer="layer1"
     showgrid="false"
     inkscape:window-width="1920"
     inkscape:window-height="1018"
     inkscape:window-x="-8"
     inkscape:window-y="-8"
     inkscape:window-maximized="1"
     fit-margin-top="0"
     fit-margin-left="0"
     fit-margin-right="0"
     fit-margin-bottom="0" />
  <metadata
     id="metadata7">
    <rdf:RDF>
      <cc:Work
         rdf:about="">
        <dc:format>image/svg+xml</dc:format>
        <dc:type
           rdf:resource="http://purl.org/dc/dcmitype/StillImage" />
        <dc:title></dc:title>
      </cc:Work>
    </rdf:RDF>
  </metadata>
  <g
     inkscape:label="Layer 1"
     inkscape:groupmode="layer"
     id="layer1"
     transform="translate(-510.83549,-390.68215)">
    <path
       style="fill:#000000;fill-opacity:1;stroke:#000000;stroke-width:0.60000002;stroke-linecap:round;stroke-linejoin:round;stroke-miterlimit:4;stroke-opacity:0;stroke-dasharray:none"
       d="m 580.28125,391 c -9.1379,0.11683 -18.91605,2.16315 -29.34375,6.375 -28.44812,11.49048 -34.56945,31.0087 -32.90625,46.625 1.28793,12.09286 4.90379,16.44323 13.71875,21.125 7.4267,3.63794 13.71955,3.84085 20.1875,3.875 11.64599,0 21.0625,-9.44776 21.0625,-21.09375 0,-11.64599 -9.41651,-21.09375 -21.0625,-21.09375 -6.01289,0.36933 -7.67367,2.56998 -14.21875,2.03125 -2.85715,-0.22321 -5.98215,-3.28125 -5.625,-5.46875 0.35714,-2.1875 3.35854,-12.61887 18.66513,-19.2749 14.75711,-6.4171 34.07148,-10.14475 45.67862,2.7124 11.60715,12.85714 15.4751,32.25396 14.84375,47.40625 -0.63135,15.15228 -8.23112,44.57265 -25.65625,68.4375 -17.42513,23.86485 -74.5,61.375 -74.5,61.375 l 1.40625,5.6875 c 0,0 63.75292,-27.61593 98.09375,-61.625 21.10034,-20.89649 35.375,-48.23191 35.375,-68.6875 0,-20.45559 -7.86654,-41.05411 -25.03125,-54.25 C 608.99262,395.94924 595.51108,390.80528 580.28125,391 z m 88.9375,19.03125 c -7.53154,0 -13.625,6.09346 -13.625,13.625 0,7.53154 6.09346,13.65625 13.625,13.65625 7.53154,0 13.65625,-6.12471 13.65625,-13.65625 0,-7.53154 -6.12471,-13.625 -13.65625,-13.625 z m 0,54.15625 c -7.53154,0 -13.625,6.12471 -13.625,13.65625 0,7.53154 6.09346,13.625 13.625,13.625 7.53154,0 13.65625,-6.09346 13.65625,-13.625 0,-7.53154 -6.12471,-13.65625 -13.65625,-13.65625 z"
       id="path3784"
       inkscape:connector-curvature="0"
       sodipodi:nodetypes="sssccsccsssssccssssssssssssss" />
  </g>
</svg>
