<?xml version="1.0" encoding="UTF-8" standalone="no"?>
<!-- Created with Inkscape (http://www.inkscape.org/) -->

<svg
   xmlns:dc="http://purl.org/dc/elements/1.1/"
   xmlns:cc="http://creativecommons.org/ns#"
   xmlns:rdf="http://www.w3.org/1999/02/22-rdf-syntax-ns#"
   xmlns:svg="http://www.w3.org/2000/svg"
   xmlns="http://www.w3.org/2000/svg"
   xmlns:sodipodi="http://sodipodi.sourceforge.net/DTD/sodipodi-0.dtd"
   xmlns:inkscape="http://www.inkscape.org/namespaces/inkscape"
   width="150.50729"
   height="425.80847"
   id="svg2"
   version="1.1"
   inkscape:version="0.48.2 r9819"
   sodipodi:docname="New document 1">
  <defs
     id="defs4" />
  <sodipodi:namedview
     id="base"
     pagecolor="#ffffff"
     bordercolor="#666666"
     borderopacity="1.0"
     inkscape:pageopacity="0.0"
     inkscape:pageshadow="2"
     inkscape:zoom="0.49497475"
     inkscape:cx="307.92708"
     inkscape:cy="145.62159"
     inkscape:document-units="px"
     inkscape:current-layer="layer1"
     showgrid="false"
     inkscape:window-width="1920"
     inkscape:window-height="1018"
     inkscape:window-x="-8"
     inkscape:window-y="-8"
     inkscape:window-maximized="1"
     fit-margin-top="0"
     fit-margin-left="0"
     fit-margin-right="0"
     fit-margin-bottom="0" />
  <metadata
     id="metadata7">
    <rdf:RDF>
      <cc:Work
         rdf:about="">
        <dc:format>image/svg+xml</dc:format>
        <dc:type
           rdf:resource="http://purl.org/dc/dcmitype/StillImage" />
        <dc:title></dc:title>
      </cc:Work>
    </rdf:RDF>
  </metadata>
  <g
     inkscape:label="Layer 1"
     inkscape:groupmode="layer"
     id="layer1"
     transform="translate(-300.10321,-309.49971)">
    <path
       style="fill:#000000;fill-opacity:1;stroke:none"
       d="m 389.9375,309.5 c -2.40306,-0.0237 -4.11548,1.39864 -5.0625,2.15625 -2.52538,2.02031 -20.19924,16.66671 -25.25,46.71875 -4.22608,25.14513 -2.58852,57.88278 3.375,84.03125 -24.38706,24.05967 -39.97646,43.12025 -49.34375,58.65625 -10.35407,17.17259 -16.78287,40.08177 -11.875,63.90625 6.57229,31.90417 19.71002,48.74476 36.125,58.59375 14.91139,8.94683 44.18694,15.98401 66.84375,8.875 5.67443,28.47962 9.84375,49.71875 9.84375,49.71875 0,0 2.40439,21.19067 -4.25,30.125 -7.39361,9.92683 -16.94501,15.92474 -31.28125,15.90625 -9.85971,-0.0127 -15.96723,-3.58654 -20.125,-11.25 0.47831,0.0294 0.95179,0.0625 1.4375,0.0625 12.83151,0 23.21875,-10.41849 23.21875,-23.25 0,-12.83151 -10.38724,-23.21875 -23.21875,-23.21875 -11.0719,0 -20.32394,7.72617 -22.65625,18.09375 -1.02612,3.08633 -1.96077,6.9429 -1.84375,10.6875 0.25254,8.08122 8.83931,27.51427 21.71875,32.3125 12.87945,4.79822 32.33502,6.32535 48.75,-4.28125 16.41498,-10.6066 18.42402,-35.35454 16.65625,-46.71875 -0.47428,-3.04893 -4.70826,-23.64164 -10.46875,-51.34375 22.46362,-10.99419 34.2749,-24.18759 37.75,-54.71875 3.53553,-31.06219 -21.98096,-59.84121 -48.75,-60.09375 -4.50701,-0.0425 -8.77223,0.32784 -12.8125,1.09375 -3.24982,-15.44934 -6.54148,-31.02178 -9.25,-43.875 17.63928,-16.33546 32.2898,-40.72098 36.46875,-65.5625 4.54569,-27.02158 2.773,-45.71065 -8.84375,-74.5 C 399.83328,313.63166 393.9426,309.53946 389.9375,309.5 z m 4.15625,39.625 c 6.19335,0.18922 12.11104,4.51673 13.5,16.84375 2.00649,17.80752 -7.45203,40.60113 -36.03125,68.125 -0.60536,-2.86744 -2.59375,-12.3125 -2.59375,-12.3125 0,0 -3.78553,-24.25143 -0.25,-39.65625 3.53553,-15.40483 9.07503,-27.02189 17.15625,-31.0625 2.52538,-1.26269 5.40359,-2.02351 8.21875,-1.9375 z M 372.375,477.84375 c 2.53791,10.78555 5.57913,24.39626 8.84375,39.65625 -15.96612,5.29404 -27.15162,16.99574 -31.71875,31.0625 -6.31345,19.44544 -3.38479,26.99214 1.125,36.21875 5.09767,10.42935 14.38493,17.56297 23.15625,21.25 4.22215,1.77478 8.3125,2.125 8.3125,2.125 l 0,-3.78125 c 0,0 -23.74413,-14.66608 -21.21875,-32.34375 2.25136,-15.75953 14.14845,-28.10527 25.46875,-30.0625 5.91135,28.32124 11.96783,58.21605 17.03125,83.5625 -22.28586,5.96332 -54.29157,-0.20862 -67,-14.09375 -13.63706,-14.89975 -22.47478,-37.14482 -15.65625,-63.15625 6.54718,-24.97628 32.18727,-53.86549 51.65625,-70.4375 z m 21.90625,64.25 c 12.72081,1.52492 31.60695,7.4203 37.3125,25.90625 6.0111,19.47598 -0.58122,45.11313 -20.40625,54.71875 -5.04891,-24.24633 -10.90765,-52.06593 -16.90625,-80.625 z"
       id="path2996"
       inkscape:connector-curvature="0" />
  </g>
</svg>
